:SAMPLES-PER-SECOND 30
:FULLY-SPECIFIED
:DEGREES
296
root  67.0157 38.6152 0.202102 -113 -87.4059 111.262
RightUpLeg  10.6528 -14.0622 -10.4319
RightLeg  18.8851 0.679116 0.471122
RightFoot  -20.5208 0.346695 6.0339
RightToes  0.00048216 0.542163 -0.142577
Spine  13.1795 1.12611 6.61536
Spine1  4.70743 3.47376 -6.61215
HEad  -5.09172 2.22637 -4.20534
LeftShoulder1  5.91875 -9.03106 -40.8903
LeftArm  -20.1189 25.1981 -31.2541
LeftForeArm  33.5115 -25.3599 -3.66705
LeftHand  -0.25398 0.0180481 5.50724
RightShoulder  4.19676 7.47082 32.2985
RightArm  -8.49078 -14.4538 37.8296
RightForeArm  7.22125 21.3361 4.50363
RightHand  -1.94947 6.42802 -19.3799
LeftUpLeg  -19.9854 2.42794 1.34475
LeftLeg  -1.28516 15.7862 -5.58671
LeftFoot  -0.463363 0.422398 -4.3865
LeftToes  1.06247e-005 4.65855e-005 -8.18501e-006
297
root  68.1826 38.7715 0.020416 -100.349 -87.8082 98.9392
RightUpLeg  9.12215 -14.9353 -9.55919
RightLeg  17.766 0.236595 1.00426
RightFoot  -20.3678 0.216995 4.48326
RightToes  0.00048216 0.542163 -0.142577
Spine  13.618 1.02386 5.8581
Spine1  4.16281 2.76348 -4.62654
HEad  -5.20748 2.93353 -3.60248
LeftShoulder1  5.78943 -8.92652 -40.285
LeftArm  -19.0992 25.0624 -31.3523
LeftForeArm  34.0283 -24.7937 -3.52106
LeftHand  -0.25398 0.0180481 5.50724
RightShoulder  4.14837 7.48236 31.8151
RightArm  -10.7373 -14.5939 35.464
RightForeArm  6.01798 20.1212 4.55961
RightHand  -2.05182 6.53471 -20.1739
LeftUpLeg  -19.4211 2.7467 1.77912
LeftLeg  -3.31478 16.4688 -6.34847
LeftFoot  -0.567756 0.606424 -6.38122
LeftToes  1.06247e-005 4.65855e-005 -8.18501e-006
298
root  69.2244 38.9651 -0.113991 -82.3869 -87.7382 80.9995
RightUpLeg  7.88744 -14.9138 -9.02301
RightLeg  16.9469 -1.05976 1.31279
RightFoot  -19.503 0.109004 3.38229
RightToes  0.00048216 0.542163 -0.142577
Spine  14.5067 0.925568 4.91185
Spine1  3.1557 2.18535 -3.07173
HEad  -4.78981 3.35859 -2.38324
LeftShoulder1  5.67882 -8.9224 -39.4589
LeftArm  -17.5192 25.1897 -30.3208
LeftForeArm  34.1758 -23.8305 -3.32417
LeftHand  -0.25398 0.0180481 5.50724
RightShoulder  3.899 7.05619 30.9678
RightArm  -14.4047 -15.4002 33.1604
RightForeArm  4.50347 19.1516 4.55351
RightHand  -2.26342 7.08252 -21.2483
LeftUpLeg  -19.5962 3.32715 1.52035
LeftLeg  0.00288064 17.0021 -5.41337
LeftFoot  0.0779135 0.620732 -6.21836
LeftToes  1.06247e-005 4.65855e-005 -8.18501e-006
299
root  70.1265 39.1484 -0.182647 -70.1 -87.2456 68.6463
RightUpLeg  6.80257 -14.1976 -8.80008
RightLeg  16.3251 -2.59437 1.41071
RightFoot  -18.7006 0.0710669 3.08051
RightToes  0.00048216 0.542163 -0.142577
Spine  14.8605 0.797989 4.5934
Spine1  2.67378 1.93618 -2.72947
HEad  -4.323 3.16032 -1.13343
LeftShoulder1  5.49947 -8.92769 -38.0629
LeftArm  -16.1171 24.7563 -28.4876
LeftForeArm  33.1278 -21.5806 -3.06472
LeftHand  -0.25398 0.0180481 5.50724
RightShoulder  3.50341 6.34548 29.5927
RightArm  -18.7281 -16.6904 31.1333
RightForeArm  3.42221 18.4164 4.38716
RightHand  -2.4325 7.6126 -21.8869
LeftUpLeg  -20.1207 6.6811 -0.527122
LeftLeg  6.89371 13.1106 -2.35571
LeftFoot  0.057702 0.482402 -4.82751
LeftToes  1.06247e-005 4.65855e-005 -8.18501e-006
300
root  70.8904 39.2883 -0.18893 -65.8232 -86.6847 64.3956
RightUpLeg  5.68058 -13.3886 -8.79973
RightLeg  15.9849 -3.60407 1.4134
RightFoot  -18.2039 0.0740561 3.29098
RightToes  0.00048216 0.542163 -0.142577
Spine  14.3146 0.638173 4.78648
Spine1  2.76798 1.87711 -3.15598
HEad  -3.86856 2.64296 -0.476728
LeftShoulder1  5.13674 -8.71076 -35.9453
LeftArm  -15.9087 23.9535 -26.3124
LeftForeArm  31.7895 -18.2483 -2.88979
LeftHand  -0.25398 0.0180481 5.50724
RightShoulder  3.05124 5.54401 27.6989
RightArm  -22.3094 -17.8719 28.9958
RightForeArm  2.52184 17.1362 4.09185
RightHand  -2.54005 8.04053 -22.1209
LeftUpLeg  -20.156 11.9516 -3.47322
LeftLeg  13.6428 5.63974 0.956779
LeftFoot  -1.01328 0.382789 -4.1764
LeftToes  1.06247e-005 4.65855e-005 -8.18501e-006
301
root  71.5567 39.3869 -0.153997 -64.1659 -86.3418 62.7923
RightUpLeg  4.51286 -12.9976 -8.78701
RightLeg  16.0267 -4.0296 1.3251
RightFoot  -17.7551 0.0653189 3.30978
RightToes  0.00048216 0.542163 -0.142577
Spine  13.5699 0.453964 5.04655
Spine1  2.73591 1.81969 -3.56115
HEad  -3.36885 2.24203 -0.530556
LeftShoulder1  4.59685 -8.16368 -33.3273
LeftArm  -16.391 23.4818 -23.9167
LeftForeArm  31.009 -15.1139 -2.70951
LeftHand  -0.25398 0.0180481 5.50724
RightShoulder  2.59623 4.72225 25.454
RightArm  -24.4677 -18.6037 26.3042
RightForeArm  1.3612 15.1181 3.64491
RightHand  -2.62019 8.37988 -22.255
LeftUpLeg  -18.9651 11.3257 -3.34962
LeftLeg  19.1618 4.55065 2.21794
LeftFoot  -2.55198 0.333232 -4.13304
LeftToes  1.06247e-005 4.65855e-005 -8.18501e-006
302
root  72.1445 39.4399 -0.0930658 -63.9805 -86.3617 62.567
RightUpLeg  3.39895 -12.8635 -8.56145
RightLeg  16.3679 -4.10581 1.13287
RightFoot  -17.3807 0.0518525 3.21535
RightToes  0.00048216 0.542163 -0.142577
Spine  13.03 0.319401 5.29508
Spine1  2.47712 1.79172 -3.74496
HEad  -2.93864 2.24728 -0.792582
LeftShoulder1  3.98167 -7.39967 -30.4354
LeftArm  -16.5725 23.5207 -21.3394
LeftForeArm  30.3134 -13.0477 -2.46863
LeftHand  -0.25398 0.0180481 5.50724
RightShoulder  2.14822 3.84057 23.021
RightArm  -25.6182 -18.95 23.175
RightForeArm  -0.319046 13.1168 3.1201
RightHand  -2.64037 8.41923 -22.3584
LeftUpLeg  -17.041 9.64412 -2.32434
LeftLeg  23.9239 5.66762 3.07611
LeftFoot  -3.85911 0.265379 -3.69308
LeftToes  1.06247e-005 4.65855e-005 -8.18501e-006
303
root  72.6378 39.4512 -0.0154293 -66.4691 -86.6698 65.0019
RightUpLeg  2.3843 -12.6461 -8.17251
RightLeg  16.7248 -3.91525 0.918223
RightFoot  -17.2272 0.0627722 3.49011
RightToes  0.00048216 0.542163 -0.142577
Spine  12.2319 0.304523 5.51225
Spine1  2.59791 1.88148 -3.83742
HEad  -2.66125 2.5486 -0.629802
LeftShoulder1  3.39672 -6.637 -27.348
LeftArm  -16.7137 23.8516 -18.6758
LeftForeArm  29.1201 -11.9366 -2.18011
LeftHand  -0.25398 0.0180481 5.50724
RightShoulder  1.70683 2.85372 20.458
RightArm  -26.3631 -18.9346 20.0719
RightForeArm  -2.68938 11.6612 2.68107
RightHand  -2.60966 8.1945 -22.4562
LeftUpLeg  -14.5498 8.95133 -1.44787
LeftLeg  27.5743 6.50187 3.998
LeftFoot  -5.09691 0.214827 -3.38886
LeftToes  1.06247e-005 4.65855e-005 -8.18501e-006
304
root  73.0344 39.456 0.0710163 -69.3719 -87.0321 67.9788
RightUpLeg  1.49899 -12.394 -7.76475
RightLeg  16.8464 -3.63558 0.793537
RightFoot  -17.0762 0.0810727 3.92919
RightToes  0.00048216 0.542163 -0.142577
Spine  10.8483 0.34403 5.4877
Spine1  3.18525 1.95076 -3.76693
HEad  -2.32362 2.96745 0.0840799
LeftShoulder1  2.89493 -6.00778 -24.1649
LeftArm  -17.1997 24.4444 -15.9257
LeftForeArm  27.4167 -11.4962 -1.77976
LeftHand  -0.25398 0.0180481 5.50724
RightShoulder  1.29453 1.80931 17.7818
RightArm  -26.6638 -18.4398 17.1706
RightForeArm  -5.53498 10.4872 2.41976
RightHand  -2.62837 8.11505 -22.7348
LeftUpLeg  -11.223 9.28409 -0.648783
LeftLeg  28.7381 6.29564 4.06006
LeftFoot  -7.01606 0.207957 -4.49157
LeftToes  1.06247e-005 4.65855e-005 -8.18501e-006
305
root  73.3625 39.5078 0.162369 -67.3792 -87.2265 66.1425
RightUpLeg  0.932906 -12.2955 -7.43657
RightLeg  16.4668 -3.58966 0.719222
RightFoot  -16.5271 0.0697731 4.0081
RightToes  0.00048216 0.542163 -0.142577
Spine  9.31019 0.336872 4.95924
Spine1  3.60106 1.7871 -3.42363
HEad  -1.74911 3.43327 0.79969
LeftShoulder1  2.45445 -5.43667 -21.0038
LeftArm  -17.7249 25.2077 -13.1551
LeftForeArm  25.4803 -11.6565 -1.41321
LeftHand  -0.25398 0.0180481 5.50724
RightShoulder  0.951079 0.845072 15.0687
RightArm  -26.1651 -17.592 14.2466
RightForeArm  -7.99127 9.34187 2.3598
RightHand  -2.73274 8.37274 -23.1781
LeftUpLeg  -7.0931 10.8263 0.0395443
LeftLeg  26.0504 4.8076 2.92987
LeftFoot  -9.63761 0.148583 -5.98728
LeftToes  1.06247e-005 4.65855e-005 -8.18501e-006
306
root  73.6487 39.6191 0.263668 -59.8121 -87.1094 58.655
RightUpLeg  0.839749 -12.2411 -7.2741
RightLeg  15.5101 -3.96689 0.562895
RightFoot  -15.5771 0.0353792 3.81015
RightToes  0.00048216 0.542163 -0.142577
Spine  8.13458 0.294885 3.83641
Spine1  3.50927 1.38988 -2.78976
HEad  -1.15757 3.77698 0.913445
LeftShoulder1  2.02827 -4.74799 -17.9102
LeftArm  -18.1268 25.7014 -10.7497
LeftForeArm  23.594 -12.2878 -1.24394
LeftHand  -0.25398 0.0180481 5.50724
RightShoulder  0.688984 0.0328646 12.44
RightArm  -24.9875 -16.7708 11.2254
RightForeArm  -9.26634 8.56854 2.50016
RightHand  -2.86269 8.82955 -23.4927
LeftUpLeg  -2.89313 12.9779 0.4336
LeftLeg  20.1375 2.94165 1.44525
LeftFoot  -11.6246 0.0577788 -5.67663
LeftToes  1.06247e-005 4.65855e-005 -8.18501e-006
307
root  73.9126 39.7593 0.374362 -51.1689 -86.5607 50.0183
RightUpLeg  1.02985 -12.0796 -7.38789
RightLeg  14.2923 -4.76863 0.336575
RightFoot  -14.5459 0.00506113 3.70893
RightToes  0.00048216 0.542163 -0.142577
Spine  7.32158 0.23504 2.12256
Spine1  3.2399 0.857416 -1.71216
HEad  -0.878977 3.83959 0.518378
LeftShoulder1  1.63964 -3.9635 -15.0633
LeftArm  -19.0689 25.6636 -8.96772
LeftForeArm  22.6359 -13.2938 -1.13649
LeftHand  -0.25398 0.0180481 5.50724
RightShoulder  0.477536 -0.736543 9.95393
RightArm  -23.9284 -16.1636 8.59292
RightForeArm  -9.50551 8.56454 2.73744
RightHand  -3.02703 9.53413 -23.6683
LeftUpLeg  0.228088 12.333 0.326749
LeftLeg  13.7323 3.90396 0.0423996
LeftFoot  -11.6233 0.0572785 -3.50304
LeftToes  1.06247e-005 4.65855e-005 -8.18501e-006
308
root  74.1706 39.9055 0.477786 -44.2237 -85.5839 43.1725
RightUpLeg  1.16439 -11.9353 -7.78822
RightLeg  13.1627 -5.85822 0.210987
RightFoot  -13.5795 -0.0208196 3.64143
RightToes  0.00048216 0.542163 -0.142577
Spine  6.63402 0.0983539 -0.00739481
Spine1  3.07539 0.228354 -0.214147
HEad  -0.945356 3.59952 0.342438
LeftShoulder1  1.36704 -3.35647 -12.8382
LeftArm  -21.1174 25.2805 -7.47338
LeftForeArm  23.2822 -14.7843 -1.02955
LeftHand  -0.25398 0.0180481 5.50724
RightShoulder  0.291774 -1.58218 7.62677
RightArm  -23.7692 -15.6991 6.97014
RightForeArm  -9.70378 9.13199 2.90272
RightHand  -3.29891 10.5271 -24.1649
LeftUpLeg  1.56938 6.70766 -0.303662
LeftLeg  9.39106 9.19465 -1.50282
LeftFoot  -9.9424 0.0792451 -1.54205
LeftToes  1.06247e-005 4.65855e-005 -8.18501e-006
